<?xml version="1.0" encoding="UTF-8" standalone="no"?>
<!-- Created with Inkscape (http://www.inkscape.org/) -->

<svg
   xmlns:dc="http://purl.org/dc/elements/1.1/"
   xmlns:cc="http://creativecommons.org/ns#"
   xmlns:rdf="http://www.w3.org/1999/02/22-rdf-syntax-ns#"
   xmlns:svg="http://www.w3.org/2000/svg"
   xmlns="http://www.w3.org/2000/svg"
   xmlns:xlink="http://www.w3.org/1999/xlink"
   xmlns:sodipodi="http://sodipodi.sourceforge.net/DTD/sodipodi-0.dtd"
   xmlns:inkscape="http://www.inkscape.org/namespaces/inkscape"
   width="183.89287mm"
   height="38.259193mm"
   viewBox="0 0 183.89287 38.259193"
   version="1.1"
   id="svg8"
   inkscape:version="0.92.2 5c3e80d, 2017-08-06"
   sodipodi:docname="mmr.svg">
  <defs
     id="defs2">
    <linearGradient
       inkscape:collect="always"
       id="linearGradient1304">
      <stop
         style="stop-color:#7137c8;stop-opacity:1"
         offset="0"
         id="stop1300" />
      <stop
         style="stop-color:#00ccff;stop-opacity:1"
         offset="1"
         id="stop1302" />
    </linearGradient>
    <linearGradient
       inkscape:collect="always"
       xlink:href="#linearGradient1304"
       id="linearGradient1308"
       gradientUnits="userSpaceOnUse"
       x1="57.212013"
       y1="141.05324"
       x2="192.49034"
       y2="141.05324"
       gradientTransform="matrix(1.282039,0,0,1.282039,-17.67695,-38.044327)" />
  </defs>
  <sodipodi:namedview
     id="base"
     pagecolor="#ffffff"
     bordercolor="#666666"
     borderopacity="1.0"
     inkscape:pageopacity="0.0"
     inkscape:pageshadow="2"
     inkscape:zoom="0.90509668"
     inkscape:cx="447.83692"
     inkscape:cy="-6.8860983"
     inkscape:document-units="mm"
     inkscape:current-layer="layer1"
     showgrid="false"
     inkscape:window-width="1440"
     inkscape:window-height="855"
     inkscape:window-x="0"
     inkscape:window-y="1"
     inkscape:window-maximized="1" />
  <metadata
     id="metadata5">
    <rdf:RDF>
      <cc:Work
         rdf:about="">
        <dc:format>image/svg+xml</dc:format>
        <dc:type
           rdf:resource="http://purl.org/dc/dcmitype/StillImage" />
        <dc:title />
      </cc:Work>
    </rdf:RDF>
  </metadata>
  <g
     inkscape:label="Layer 1"
     inkscape:groupmode="layer"
     id="layer1"
     transform="translate(-22.605595,-114.87531)">
    <g
       aria-label="MakeMyResume "
       style="font-style:normal;font-weight:normal;font-size:13.56824589px;line-height:1.25;font-family:sans-serif;letter-spacing:0px;word-spacing:0px;fill:#1c241c;fill-opacity:1;stroke:none;stroke-width:0.33920613"
       id="text817">
      <path
         d="m 69.856696,148.78136 v -17.84543 h -1.236689 l -6.121611,16.5469 h -0.04947 l -6.146344,-16.5469 h -1.211956 v 17.84543 h 0.902783 V 132.7786 h 0.06183 l 5.936107,15.97802 h 0.952251 l 5.936108,-15.97802 h 0.06183 v 16.00276 z"
         style="font-style:normal;font-variant:normal;font-weight:normal;font-stretch:normal;font-size:25.32739258px;font-family:'.SF NS Display Condensed';-inkscape-font-specification:'.SF NS Display Condensed, ';fill:#1c241c;fill-opacity:1;stroke-width:0.33920613"
         id="path8491" />
      <path
         d="m 76.101976,148.13828 c -1.718997,0 -3.066989,-1.07592 -3.066989,-2.79492 0,-1.80556 1.249056,-2.72071 3.586399,-3.02989 l 3.388528,-0.34627 v 2.28787 c 0,2.15184 -1.718998,3.88321 -3.907938,3.88321 z m -0.173136,0.82858 c 1.892134,0 3.512197,-1.10065 4.068707,-2.65888 h 0.0371 v 2.47338 h 0.91515 v -9.0031 c 0,-2.67125 -1.545862,-4.20474 -4.081074,-4.20474 -2.522846,0 -4.180009,1.45929 -4.365513,3.94504 h 0.902783 c 0.247338,-2.06528 1.508761,-3.09173 3.450363,-3.09173 1.953969,0 3.153557,1.21196 3.153557,3.42563 v 1.32326 l -3.536931,0.35864 c -2.881485,0.37101 -4.377879,1.55823 -4.377879,3.82137 0,2.21367 1.620062,3.61113 3.833736,3.61113 z"
         style="font-style:normal;font-variant:normal;font-weight:normal;font-stretch:normal;font-size:25.32739258px;font-family:'.SF NS Display Condensed';-inkscape-font-specification:'.SF NS Display Condensed, ';fill:#1c241c;fill-opacity:1;stroke-width:0.33920613"
         id="path8493" />
      <path
         d="m 84.635131,142.41241 h -0.01237 v -11.47648 h -0.939883 v 17.84543 h 0.939883 v -5.21883 l 1.545862,-1.5706 5.00859,6.78943 h 1.113021 l -5.429066,-7.4325 5.379598,-5.58984 h -1.174855 z"
         style="font-style:normal;font-variant:normal;font-weight:normal;font-stretch:normal;font-size:25.32739258px;font-family:'.SF NS Display Condensed';-inkscape-font-specification:'.SF NS Display Condensed, ';fill:#1c241c;fill-opacity:1;stroke-width:0.33920613"
         id="path8495" />
      <path
         d="m 97.583265,136.42683 c 2.362076,0 3.870835,2.05291 3.883205,5.1941 h -7.852977 c 0.123669,-3.19066 1.644796,-5.1941 3.969772,-5.1941 z m 3.759535,8.70629 c -0.33391,1.7561 -1.620063,2.99279 -3.648233,2.99279 -2.510479,0 -4.093441,-2.0158 -4.093441,-5.65167 v -0.0495 h 8.805224 v -0.54414 c 0,-3.90794 -1.85503,-6.30711 -4.810718,-6.30711 -3.042255,0 -4.93439,2.53521 -4.93439,6.71522 0,4.31604 1.892135,6.67812 5.020958,6.67812 2.53521,0 4.21711,-1.52113 4.58812,-3.83374 z"
         style="font-style:normal;font-variant:normal;font-weight:normal;font-stretch:normal;font-size:25.32739258px;font-family:'.SF NS Display Condensed';-inkscape-font-specification:'.SF NS Display Condensed, ';fill:#1c241c;fill-opacity:1;stroke-width:0.33920613"
         id="path8497" />
      <path
         d="m 119.47266,148.78136 v -17.84543 h -1.23669 l -6.12161,16.5469 h -0.0495 l -6.14635,-16.5469 h -1.21195 v 17.84543 h 0.90278 V 132.7786 h 0.0618 l 5.93611,15.97802 h 0.95225 l 5.93611,-15.97802 h 0.0618 v 16.00276 z"
         style="font-style:normal;font-variant:normal;font-weight:normal;font-stretch:normal;font-size:25.32739258px;font-family:'.SF NS Display Condensed';-inkscape-font-specification:'.SF NS Display Condensed, ';fill:#1c241c;fill-opacity:1;stroke-width:0.33920613"
         id="path8499" />
      <path
         d="m 122.99723,153.1345 c 1.719,0 2.42391,-0.86568 3.40089,-3.7719 l 4.50155,-13.60358 h -0.98935 l -3.87084,12.02062 h -0.0371 l -3.89557,-12.02062 h -0.98935 l 4.40261,13.29441 -0.3339,0.92752 c -0.58125,1.71899 -1.15012,2.3126 -2.18894,2.3126 -0.23497,0 -0.49468,-0.0371 -0.64308,-0.0866 v 0.84094 c 0.13604,0.0371 0.39574,0.0866 0.64308,0.0866 z"
         style="font-style:normal;font-variant:normal;font-weight:normal;font-stretch:normal;font-size:25.32739258px;font-family:'.SF NS Display Condensed';-inkscape-font-specification:'.SF NS Display Condensed, ';fill:#1c241c;fill-opacity:1;stroke-width:0.33920613"
         id="path8501" />
      <path
         d="m 134.00376,131.81398 h 3.89557 c 2.73309,0 4.36552,1.44693 4.36552,4.15528 0,2.67125 -1.55823,4.21711 -4.30368,4.21711 h -3.95741 z m 0,9.23807 h 4.06871 c 0.12367,0 0.38337,0 0.49468,-0.0124 l 3.9945,7.74168 h 1.08829 l -4.10581,-7.90245 c 2.30024,-0.50704 3.71007,-2.33734 3.71007,-4.92202 0,-3.19066 -1.99107,-5.02096 -5.29303,-5.02096 h -4.90966 v 17.84543 h 0.95225 z"
         style="font-style:normal;font-variant:normal;font-weight:normal;font-stretch:normal;font-size:25.32739258px;font-family:'.SF NS Display Condensed';-inkscape-font-specification:'.SF NS Display Condensed, ';fill:#1c241c;fill-opacity:1;stroke-width:0.33920613"
         id="path8503" />
      <path
         d="m 149.62314,136.42683 c 2.36208,0 3.87084,2.05291 3.88321,5.1941 h -7.85298 c 0.12367,-3.19066 1.6448,-5.1941 3.96977,-5.1941 z m 3.75954,8.70629 c -0.33391,1.7561 -1.62006,2.99279 -3.64823,2.99279 -2.51048,0 -4.09345,-2.0158 -4.09345,-5.65167 v -0.0495 h 8.80523 v -0.54414 c 0,-3.90794 -1.85503,-6.30711 -4.81072,-6.30711 -3.04225,0 -4.93439,2.53521 -4.93439,6.71522 0,4.31604 1.89214,6.67812 5.02096,6.67812 2.53521,0 4.21711,-1.52113 4.58812,-3.83374 z"
         style="font-style:normal;font-variant:normal;font-weight:normal;font-stretch:normal;font-size:25.32739258px;font-family:'.SF NS Display Condensed';-inkscape-font-specification:'.SF NS Display Condensed, ';fill:#1c241c;fill-opacity:1;stroke-width:0.33920613"
         id="path8505" />
      <path
         d="m 156.3631,139.01151 c 0,1.7561 1.07592,2.72072 3.22776,3.33906 l 1.50876,0.43284 c 1.8303,0.54415 2.64651,1.28616 2.64651,2.70835 0,1.6077 -1.38509,2.65889 -3.30196,2.65889 -1.96633,0 -3.33906,-1.18723 -3.52456,-3.05463 h -0.92752 c 0.16077,2.33735 1.85504,3.87084 4.43972,3.87084 2.46101,0 4.25421,-1.40983 4.25421,-3.53693 0,-1.84267 -0.96462,-2.77018 -3.26486,-3.46273 l -1.48403,-0.42047 c -1.80556,-0.54415 -2.65888,-1.26143 -2.65888,-2.58468 0,-1.52113 1.29852,-2.55995 3.05462,-2.55995 1.8674,0 3.05462,1.11302 3.26486,3.11646 h 0.90278 c -0.1855,-2.52285 -1.71899,-3.94504 -4.15527,-3.94504 -2.30024,0 -3.98214,1.37272 -3.98214,3.43799 z"
         style="font-style:normal;font-variant:normal;font-weight:normal;font-stretch:normal;font-size:25.32739258px;font-family:'.SF NS Display Condensed';-inkscape-font-specification:'.SF NS Display Condensed, ';fill:#1c241c;fill-opacity:1;stroke-width:0.33920613"
         id="path8507" />
      <path
         d="m 175.72965,135.75902 h -0.93989 v 8.22398 c -0.0124,2.49812 -1.54586,4.13054 -3.7348,4.13054 -2.09,0 -3.37616,-1.24905 -3.37616,-3.64823 v -8.70629 h -0.93988 v 8.84233 c 0,2.78255 1.62006,4.36551 4.09344,4.36551 1.9045,0 3.438,-1.06355 3.96977,-2.64651 h 0.0371 v 2.46101 h 0.89042 z"
         style="font-style:normal;font-variant:normal;font-weight:normal;font-stretch:normal;font-size:25.32739258px;font-family:'.SF NS Display Condensed';-inkscape-font-specification:'.SF NS Display Condensed, ';fill:#1c241c;fill-opacity:1;stroke-width:0.33920613"
         id="path8509" />
      <path
         d="m 178.48747,148.78136 h 0.93988 v -8.10032 c 0,-2.52284 1.28616,-4.25421 3.26486,-4.25421 1.80557,0 2.99279,1.32326 2.99279,3.53693 v 8.8176 h 0.93988 v -8.32292 c 0,-2.36208 1.27379,-4.03161 3.26486,-4.03161 1.87977,0 2.99279,1.29853 2.99279,3.5493 v 8.80523 h 0.93988 v -8.97837 c 0,-2.64651 -1.43456,-4.22947 -3.6977,-4.22947 -1.87977,0 -3.22776,1.21195 -3.67297,2.75781 h -0.0618 c -0.35864,-1.58296 -1.62006,-2.75781 -3.46273,-2.75781 -1.80557,0 -3.05462,1.11302 -3.5122,2.69598 h -0.0371 v -2.51048 h -0.89041 z"
         style="font-style:normal;font-variant:normal;font-weight:normal;font-stretch:normal;font-size:25.32739258px;font-family:'.SF NS Display Condensed';-inkscape-font-specification:'.SF NS Display Condensed, ';fill:#1c241c;fill-opacity:1;stroke-width:0.33920613"
         id="path8511" />
      <path
         d="m 200.87154,136.42683 c 2.36208,0 3.87084,2.05291 3.88321,5.1941 h -7.85298 c 0.12367,-3.19066 1.6448,-5.1941 3.96977,-5.1941 z m 3.75954,8.70629 c -0.33391,1.7561 -1.62007,2.99279 -3.64824,2.99279 -2.51048,0 -4.09344,-2.0158 -4.09344,-5.65167 v -0.0495 h 8.80523 v -0.54414 c 0,-3.90794 -1.85503,-6.30711 -4.81072,-6.30711 -3.04226,0 -4.93439,2.53521 -4.93439,6.71522 0,4.31604 1.89213,6.67812 5.02096,6.67812 2.53521,0 4.21711,-1.52113 4.58811,-3.83374 z"
         style="font-style:normal;font-variant:normal;font-weight:normal;font-stretch:normal;font-size:25.32739258px;font-family:'.SF NS Display Condensed';-inkscape-font-specification:'.SF NS Display Condensed, ';fill:#1c241c;fill-opacity:1;stroke-width:0.33920613"
         id="path8513" />
    </g>
    <g
       id="g1096"
       transform="matrix(0.06726201,0,0,0.06726201,22.605124,114.87531)"
       inkscape:export-xdpi="200"
       inkscape:export-ydpi="200">
      <g
         id="g958"
         style="fill:#121240;fill-opacity:1"
         inkscape:export-xdpi="200"
         inkscape:export-ydpi="200">
        <g
           id="g956"
           style="fill:#121240;fill-opacity:1">
          <path
             id="path954"
             d="m 414.007,148.75 c 5.522,0 10,-4.477 10,-10 V 30 c 0,-16.542 -13.458,-30 -30,-30 h -364 c -16.542,0 -30,13.458 -30,30 v 452 c 0,16.542 13.458,30 30,30 h 364 c 16.542,0 30,-13.458 30,-30 v -73.672 c 0,-5.523 -4.478,-10 -10,-10 -5.522,0 -10,4.477 -10,10 V 482 c 0,5.514 -4.486,10 -10,10 h -364 c -5.514,0 -10,-4.486 -10,-10 V 30 c 0,-5.514 4.486,-10 10,-10 h 364 c 5.514,0 10,4.486 10,10 v 108.75 c 0,5.523 4.478,10 10,10 z"
             inkscape:connector-curvature="0"
             style="fill:#121240;fill-opacity:1" />
        </g>
      </g>
      <g
         id="g964"
         style="fill:#1f1f33;fill-opacity:1"
         inkscape:export-xdpi="200"
         inkscape:export-ydpi="200">
        <g
           id="g962"
           style="fill:#1f1f33;fill-opacity:1">
          <path
             id="path960"
             d="m 212.007,54 c -50.729,0 -92,41.271 -92,92 0,26.317 11.11,50.085 28.882,66.869 0.333,0.356 0.687,0.693 1.074,1 16.371,14.979 38.158,24.13 62.043,24.13 23.885,0 45.672,-9.152 62.043,-24.13 0.387,-0.307 0.741,-0.645 1.074,-1 17.774,-16.784 28.884,-40.552 28.884,-66.869 0,-50.729 -41.271,-92 -92,-92 z m 0,164 c -16.329,0 -31.399,-5.472 -43.491,-14.668 8.789,-15.585 25.19,-25.332 43.491,-25.332 18.301,0 34.702,9.747 43.491,25.332 C 243.405,212.528 228.336,218 212.007,218 Z m -16,-76 v -6.5 c 0,-8.822 7.178,-16 16,-16 8.822,0 16,7.178 16,16 v 6.5 c 0,8.822 -7.178,16 -16,16 -8.822,0 -16,-7.178 -16,-16 z m 73.94,46.683 c -7.375,-10.938 -17.596,-19.445 -29.463,-24.697 4.71,-6.087 7.523,-13.712 7.523,-21.986 v -6.5 c 0,-19.851 -16.149,-36 -36,-36 -19.851,0 -36,16.149 -36,36 v 6.5 c 0,8.274 2.813,15.899 7.523,21.986 -11.867,5.252 -22.088,13.759 -29.463,24.697 -8.829,-11.953 -14.06,-26.716 -14.06,-42.683 0,-39.701 32.299,-72 72,-72 39.701,0 72,32.299 72,72 0,15.967 -5.231,30.73 -14.06,42.683 z"
             inkscape:connector-curvature="0"
             style="fill:#1f1f33;fill-opacity:1" />
        </g>
      </g>
      <g
         id="g970"
         style="fill:#b2b2b2;fill-opacity:1"
         inkscape:export-xdpi="200"
         inkscape:export-ydpi="200">
        <g
           id="g968"
           style="fill:#b2b2b2;fill-opacity:1">
          <path
             id="path966"
             d="m 266.007,438 h -54 c -5.522,0 -10,4.477 -10,10 0,5.523 4.478,10 10,10 h 54 c 5.522,0 10,-4.477 10,-10 0,-5.523 -4.478,-10 -10,-10 z"
             inkscape:connector-curvature="0"
             style="fill:#b2b2b2;fill-opacity:1" />
        </g>
      </g>
      <g
         id="g976"
         style="fill:#b2b2b2;fill-opacity:1"
         inkscape:export-xdpi="200"
         inkscape:export-ydpi="200">
        <g
           id="g974"
           style="fill:#b2b2b2;fill-opacity:1">
          <path
             id="path972"
             d="m 266.007,382 h -142 c -5.522,0 -10,4.477 -10,10 0,5.523 4.478,10 10,10 h 142 c 5.522,0 10,-4.477 10,-10 0,-5.523 -4.478,-10 -10,-10 z"
             inkscape:connector-curvature="0"
             style="fill:#b2b2b2;fill-opacity:1" />
        </g>
      </g>
      <g
         id="g982"
         style="fill:#b2b2b2;fill-opacity:1"
         inkscape:export-xdpi="200"
         inkscape:export-ydpi="200">
        <g
           id="g980"
           style="fill:#b2b2b2;fill-opacity:1">
          <path
             id="path978"
             d="m 266.007,326 h -142 c -5.522,0 -10,4.477 -10,10 0,5.523 4.478,10 10,10 h 142 c 5.522,0 10,-4.477 10,-10 0,-5.523 -4.478,-10 -10,-10 z"
             inkscape:connector-curvature="0"
             style="fill:#b2b2b2;fill-opacity:1" />
        </g>
      </g>
      <g
         id="g988"
         style="fill:#b2b2b2;fill-opacity:1"
         inkscape:export-xdpi="200"
         inkscape:export-ydpi="200">
        <g
           id="g986"
           style="fill:#b2b2b2;fill-opacity:1">
          <path
             id="path984"
             d="M 88.366,272.93 C 86.507,271.07 83.927,270 81.287,270 c -2.631,0 -5.211,1.07 -7.07,2.93 -1.86,1.86 -2.93,4.44 -2.93,7.07 0,2.63 1.069,5.21 2.93,7.07 1.87,1.86 4.439,2.93 7.07,2.93 2.64,0 5.21,-1.07 7.079,-2.93 1.86,-1.86 2.931,-4.44 2.931,-7.07 0,-2.63 -1.07,-5.21 -2.931,-7.07 z"
             inkscape:connector-curvature="0"
             style="fill:#b2b2b2;fill-opacity:1" />
        </g>
      </g>
      <g
         id="g994"
         style="fill:#b2b2b2;fill-opacity:1"
         inkscape:export-xdpi="200"
         inkscape:export-ydpi="200">
        <g
           id="g992"
           style="fill:#b2b2b2;fill-opacity:1">
          <path
             id="path990"
             d="M 88.366,328.93 C 86.497,327.07 83.927,326 81.287,326 c -2.631,0 -5.2,1.07 -7.07,2.93 -1.86,1.86 -2.93,4.44 -2.93,7.07 0,2.63 1.069,5.21 2.93,7.07 1.87,1.86 4.439,2.93 7.07,2.93 2.64,0 5.21,-1.07 7.079,-2.93 1.86,-1.86 2.931,-4.44 2.931,-7.07 0,-2.63 -1.07,-5.21 -2.931,-7.07 z"
             inkscape:connector-curvature="0"
             style="fill:#b2b2b2;fill-opacity:1" />
        </g>
      </g>
      <g
         id="g1000"
         style="fill:#b2b2b2;fill-opacity:1"
         inkscape:export-xdpi="200"
         inkscape:export-ydpi="200">
        <g
           id="g998"
           style="fill:#b2b2b2;fill-opacity:1">
          <path
             id="path996"
             d="M 88.366,384.93 C 86.497,383.07 83.927,382 81.287,382 c -2.631,0 -5.2,1.07 -7.07,2.93 -1.86,1.86 -2.93,4.44 -2.93,7.07 0,2.63 1.069,5.21 2.93,7.07 1.859,1.86 4.439,2.93 7.07,2.93 2.64,0 5.22,-1.07 7.079,-2.93 1.86,-1.86 2.931,-4.44 2.931,-7.07 0,-2.63 -1.07,-5.21 -2.931,-7.07 z"
             inkscape:connector-curvature="0"
             style="fill:#b2b2b2;fill-opacity:1" />
        </g>
      </g>
      <g
         id="g1006"
         style="fill:#b2b2b2;fill-opacity:1"
         inkscape:export-xdpi="200"
         inkscape:export-ydpi="200">
        <g
           id="g1004"
           style="fill:#b2b2b2;fill-opacity:1">
          <path
             id="path1002"
             d="m 266.007,270 h -142 c -5.522,0 -10,4.477 -10,10 0,5.523 4.478,10 10,10 h 142 c 5.522,0 10,-4.477 10,-10 0,-5.523 -4.478,-10 -10,-10 z"
             inkscape:connector-curvature="0"
             style="fill:#b2b2b2;fill-opacity:1" />
        </g>
      </g>
      <g
         id="g1012"
         inkscape:export-xdpi="200"
         inkscape:export-ydpi="200"
         style="fill:#1f1f33;fill-opacity:1">
        <g
           id="g1010"
           style="fill:#1f1f33;fill-opacity:1">
          <path
             id="path1008"
             d="m 491.002,130.32 c -9.715,-5.609 -21.033,-7.099 -31.871,-4.196 -10.836,2.904 -19.894,9.854 -25.502,19.569 L 307.787,363.656 c -0.689,1.195 -1.125,2.52 -1.278,3.891 l -8.858,79.344 c -0.44,3.948 1.498,7.783 4.938,9.77 1.553,0.896 3.278,1.34 4.999,1.34 2.092,0 4.176,-0.655 5.931,-1.948 l 64.284,-47.344 c 1.111,-0.818 2.041,-1.857 2.73,-3.052 L 506.374,187.694 c 11.58,-20.056 4.684,-45.794 -15.372,-57.374 z m -170.939,296.074 4.626,-41.432 28.942,16.71 z m 48.15,-39.398 -38.105,-22 100.985,-174.91 38.105,22 z m 120.841,-209.303 -9.857,17.073 -38.105,-22 9.857,-17.073 c 2.938,-5.089 7.682,-8.729 13.358,-10.25 5.678,-1.522 11.606,-0.74 16.694,2.198 5.089,2.938 8.729,7.682 10.25,13.358 1.521,5.676 0.741,11.605 -2.197,16.694 z"
             inkscape:connector-curvature="0"
             style="fill:#1f1f33;fill-opacity:1" />
        </g>
      </g>
      <g
         id="g1014" />
      <g
         id="g1016" />
      <g
         id="g1018" />
      <g
         id="g1020" />
      <g
         id="g1022" />
      <g
         id="g1024" />
      <g
         id="g1026" />
      <g
         id="g1028" />
      <g
         id="g1030" />
      <g
         id="g1032" />
      <g
         id="g1034" />
      <g
         id="g1036" />
      <g
         id="g1038" />
      <g
         id="g1040" />
      <g
         id="g1042" />
    </g>
    <path
       style="opacity:1;fill:#ffeeaa;fill-opacity:1;stroke:none;stroke-width:0.25253814;stroke-opacity:1"
       d="m 137.77421,473.91016 c -1.0448,-0.47375 -2.07854,-1.75748 -2.28,-2.83134 -0.28179,-1.50207 0.002,-3.83765 0.55672,-4.58053 0.94627,-1.26744 1.79728,-1.71685 3.25103,-1.71685 1.51988,0 2.39578,0.49513 3.34613,1.89147 0.46784,0.68741 0.56821,1.17855 0.56821,2.78049 0,2.1141 -0.42858,3.09117 -1.80205,4.10829 -0.85036,0.62973 -2.64159,0.80121 -3.64004,0.34847 z"
       id="path1098"
       inkscape:connector-curvature="0"
       inkscape:export-xdpi="200"
       inkscape:export-ydpi="200"
       transform="scale(0.26458333)" />
    <path
       style="opacity:1;fill:#c83737;fill-opacity:1;stroke:none;stroke-width:0.06953049;stroke-opacity:1"
       d="m 53.550561,127.23227 c -0.707471,-0.40887 -1.28275,-0.7671 -1.278391,-0.79607 0.02439,-0.16213 0.711034,-1.27784 0.907086,-1.47389 0.277289,-0.2773 0.844157,-0.4667 1.202525,-0.40179 0.833028,0.15087 1.395859,0.87185 1.305618,1.67247 -0.02059,0.18282 -0.18598,0.56374 -0.441731,1.01745 l -0.408791,0.72522 z"
       id="path1104"
       inkscape:connector-curvature="0"
       inkscape:export-xdpi="200"
       inkscape:export-ydpi="200" />
    <path
       style="opacity:1;fill:#501616;fill-opacity:1;stroke:none;stroke-width:0.06817637;stroke-opacity:1"
       d="m 46.079046,140.15641 -1.270194,-0.73074 0.180363,-0.31407 c 0.0992,-0.17274 1.650745,-2.86074 3.447878,-5.97334 l 3.267514,-5.65928 1.248846,0.72161 c 0.686863,0.39688 1.256661,0.73806 1.266215,0.75818 0.01471,0.031 -6.826544,11.92837 -6.859078,11.92837 -0.0062,0 -0.582935,-0.32883 -1.281544,-0.73073 z"
       id="path1106"
       inkscape:connector-curvature="0"
       inkscape:export-xdpi="200"
       inkscape:export-ydpi="200" />
    <path
       style="opacity:1;fill:#b3b3b3;fill-opacity:1;stroke:none;stroke-width:0.25253814;stroke-opacity:1"
       d="m 167.03149,541.40014 c 0.0806,-0.47149 0.33895,-2.67553 0.57414,-4.89787 0.23519,-2.22233 0.46051,-4.07938 0.50071,-4.12676 0.0565,-0.0665 6.54328,3.58885 6.87898,3.87636 0.0702,0.0601 -6.9721,5.3253 -7.74972,5.79413 -0.28139,0.16966 -0.3217,0.0421 -0.20411,-0.64586 z"
       id="path1108"
       inkscape:connector-curvature="0"
       inkscape:export-xdpi="200"
       inkscape:export-ydpi="200"
       transform="scale(0.26458333)" />
    <path
       style="opacity:1;fill:#008080;fill-opacity:1;stroke:none;stroke-width:0.25253814;stroke-opacity:1"
       d="m 134.88254,488.88739 c -1.77088,-0.45693 -4.81059,-1.81748 -5.91576,-2.64784 -0.43916,-0.32996 -0.45166,-0.42981 -0.1292,-1.03233 1.1133,-2.08022 4.55142,-4.51208 7.44441,-5.26561 4.78237,-1.24565 10.32827,0.74567 13.18243,4.73332 l 0.81855,1.14362 -1.19818,0.76887 c -4.06993,2.61166 -9.55296,3.49961 -14.20225,2.29997 z"
       id="path1110"
       inkscape:connector-curvature="0"
       inkscape:export-xdpi="200"
       inkscape:export-ydpi="200"
       transform="scale(0.26458333)" />
    <path
       style="opacity:1;fill:#ff7f2a;fill-opacity:1;stroke:none;stroke-width:0.25253814;stroke-opacity:1"
       d="m 123.89065,480.80735 c -1.80857,-2.86496 -2.64517,-5.86918 -2.64517,-9.49879 0,-5.07407 1.68158,-9.11069 5.29654,-12.7143 3.22455,-3.21442 6.2069,-4.72371 10.52058,-5.32416 8.89929,-1.23876 17.80157,4.9169 19.94467,13.79116 0.5524,2.28746 0.55641,6.28799 0.008,8.45305 -0.4177,1.6504 -2.55524,6.31863 -2.88815,6.30749 -0.0981,-0.003 -0.51934,-0.47329 -0.93603,-1.04445 -0.9347,-1.28123 -3.21054,-3.21266 -4.9107,-4.16757 -0.70178,-0.39416 -1.27609,-0.79255 -1.27623,-0.88531 -1.4e-4,-0.0928 0.31226,-0.77462 0.69423,-1.51523 0.65765,-1.27515 0.69427,-1.52741 0.69041,-4.75584 -0.005,-4.02395 -0.32632,-4.98635 -2.39746,-7.17627 -1.89612,-2.00487 -3.76957,-2.78585 -6.68984,-2.78877 -1.93082,-0.002 -2.48852,0.0982 -3.70604,0.66561 -2.00331,0.93357 -3.59035,2.48595 -4.5646,4.46494 -0.79349,1.6118 -0.82074,1.77211 -0.82074,4.82918 0,3.31871 -0.0288,3.20301 1.5873,6.3819 0.053,0.10417 -0.0353,0.1894 -0.1962,0.1894 -0.94915,0 -5.27783,3.52187 -6.65298,5.41294 -0.33735,0.46391 -0.39047,0.43253 -1.05805,-0.62498 z"
       id="path1112"
       inkscape:connector-curvature="0"
       inkscape:export-xdpi="200"
       inkscape:export-ydpi="200"
       transform="scale(0.26458333)" />
  </g>
</svg>
